<svg width="346" height="118" viewBox="0 0 346 118" fill="none" xmlns="http://www.w3.org/2000/svg">
<path d="M114.844 79.8164V42.4102H0.78125V20.0977H114.844V0.878906H142.5V20.0977H172.406V42.4102H142.5V76.1602C142.5 83.3477 144.125 88.2852 147.375 90.9727C150.625 93.6602 155.25 95.0039 161.25 95.0039C163.625 95.0039 165.969 94.7227 168.281 94.1602C170.656 93.5977 172.406 92.9727 173.531 92.2852L175.312 91.5352V114.598C170.562 116.91 164.531 118.035 157.219 117.973C143.031 117.973 132.406 114.879 125.344 108.691C118.344 102.504 114.844 92.8789 114.844 79.8164Z" fill="black"/>
<path d="M345.967 116.098H318.405V66.4102C318.405 50.6602 312.311 42.7852 300.124 42.7852C287.811 42.7852 281.655 50.3789 281.655 65.5664V116.098H253.999V66.4102C253.999 50.6602 247.936 42.7852 235.811 42.7852C223.499 42.7852 217.342 50.6602 217.342 66.4102V116.098H189.686V20.0977H217.342V36.0352H218.749C219.186 34.4102 220.311 32.3477 222.124 29.8477C223.624 27.7227 225.311 25.9102 227.186 24.4102C229.186 22.6602 232.03 21.1914 235.717 20.0039C239.405 18.8164 243.342 18.2227 247.53 18.2227C251.967 18.2227 256.092 18.8164 259.905 20.0039C263.717 21.1289 266.717 22.5977 268.905 24.4102C273.28 28.0352 276.061 31.3477 277.249 34.3477L277.999 36.0352H279.405C279.717 34.7852 280.874 32.7227 282.874 29.8477C284.374 27.7227 286.061 25.9102 287.936 24.4102C290.124 22.6602 292.967 21.1914 296.467 20.0039C300.03 18.8164 303.874 18.2227 307.999 18.2227C333.374 18.2227 346.03 32.2227 345.967 60.2227V116.098Z" fill="black"/>
</svg>
