<svg width="80" height="22" viewBox="0 0 80 22" fill="none" xmlns="http://www.w3.org/2000/svg">
<path fill-rule="evenodd" clip-rule="evenodd" d="M46.2559 15.2387V8.71763H50.309V4.4961H46.2559V0H40.6784V4.4961H36.2896V8.71763H40.7131V15.9251C40.7131 16.8404 40.817 17.6755 41.0249 18.4306C41.2327 19.1628 41.5676 19.8034 42.0295 20.3526C42.5145 20.8788 43.1496 21.2907 43.9348 21.5881C44.72 21.8627 45.69 22 46.8448 22C47.4453 22 48.0457 21.9428 48.6462 21.8284C49.2467 21.7369 49.7432 21.6225 50.1358 21.4852L50.0665 17.3666C49.8587 17.4581 49.5931 17.5268 49.2698 17.5725C48.9695 17.6183 48.6808 17.6412 48.4037 17.6412C47.5954 17.6412 47.0295 17.4467 46.7062 17.0577C46.406 16.6459 46.2559 16.0395 46.2559 15.2387ZM31.3407 8.71763V4.4961H23.0975V8.71763H31.3407ZM18.1486 8.71763V4.4961H9.89935V8.71763H18.1486ZM4.95044 8.71763H0V4.4961H4.95044V8.71763ZM74.3186 12.2527V21.5881H80V11.0172C80 10.2163 79.8845 9.40405 79.6536 8.58034C79.4457 7.73375 79.0993 6.97868 78.6143 6.31513C78.1293 5.6287 77.4827 5.07956 76.6743 4.66771C75.8891 4.23297 74.9076 4.0156 73.7297 4.0156C72.4364 4.0156 71.3394 4.27873 70.4387 4.80499C69.538 5.33125 68.799 6.04056 68.2216 6.93292C67.7366 5.9948 67.0553 5.27405 66.1777 4.77067C65.3232 4.26729 64.2723 4.0156 63.0252 4.0156C62.3786 4.0156 61.7781 4.09568 61.2238 4.25585C60.6926 4.41602 60.2076 4.63338 59.7688 4.90796C59.33 5.15965 58.949 5.4571 58.6256 5.80031C58.3254 6.14353 58.0714 6.49818 57.8635 6.86427H57.7942V4.4961H52.2861V21.5881H58.0021V12.3214C58.0021 11.2917 58.2446 10.4223 58.7296 9.71295C59.2377 9.00364 59.942 8.64899 60.8428 8.64899C61.6973 8.64899 62.3208 8.935 62.7134 9.50702C63.1061 10.079 63.3024 10.857 63.3024 11.8409V21.5881H68.9837V12.3557C68.9837 11.8752 69.0415 11.4176 69.1569 10.9828C69.2724 10.5252 69.4456 10.1248 69.6766 9.78159C69.9306 9.43838 70.2308 9.16381 70.5773 8.95788C70.9468 8.75195 71.374 8.64899 71.859 8.64899C72.3671 8.64899 72.7713 8.75195 73.0715 8.95788C73.3949 9.14092 73.6489 9.39261 73.8337 9.71295C74.0184 10.0333 74.1454 10.4223 74.2147 10.8799C74.284 11.3146 74.3186 11.7722 74.3186 12.2527Z" fill="#333333"/>
</svg>
